<svg width="41" height="44" fill="none" xmlns="http://www.w3.org/2000/svg"><path d="M29.235 28.971H4.991A5.002 5.002 0 0 1 0 23.98V13.671c0-.018 0-.037.01-.055 0-.018.009-.045.009-.063 0-.018.009-.036.009-.054.009-.018.009-.036.018-.064.009-.018.009-.036.018-.054.009-.018.009-.036.018-.054a.443.443 0 0 0 .027-.063.196.196 0 0 1 .027-.046l.027-.054c.01-.018.018-.027.027-.045.01-.018.027-.036.037-.054a.157.157 0 0 1 .036-.045c.009-.019.027-.028.036-.046.009-.018.027-.027.036-.045.01-.018.027-.027.036-.036l.045-.045c.019-.01.028-.028.046-.037.018-.009.036-.027.054-.036.018-.009.027-.018.045-.027a.188.188 0 0 0 .054-.036l.055-.027.054-.027.054-.027c.018-.01.036-.01.054-.018a.168.168 0 0 1 .064-.019c.018 0 .036-.009.045-.009.027-.009.045-.009.072-.009.01 0 .018-.009.036-.009l30.728-4.24V4.04c0-.045 0-.09.01-.127 0-.009 0-.018.008-.036 0-.027.01-.054.01-.081.008-.027.008-.046.018-.073 0-.018.009-.027.009-.045l.027-.081c0-.01.009-.027.009-.036a.272.272 0 0 1 .036-.073c.009-.009.009-.027.018-.036a.188.188 0 0 1 .036-.054c.01-.018.018-.027.027-.045.01-.019.018-.028.027-.046.01-.018.027-.036.036-.054l.028-.027a30.787 30.787 0 0 1 .081-.081c.018-.018.036-.037.063-.055.01-.009.027-.018.036-.027.019-.018.037-.027.055-.045.027-.018.054-.036.072-.045.01-.01.018-.01.027-.018.036-.018.082-.036.118-.055L39.19.097a1.22 1.22 0 0 1 1.601.651 1.22 1.22 0 0 1-.651 1.6l-5.914 2.497v26.749a4.997 4.997 0 0 1-4.35 4.946c.443.742.706 1.61.706 2.532A4.934 4.934 0 0 1 25.654 44a4.94 4.94 0 0 1-4.928-4.928c0-.904.244-1.763.678-2.487H10.426c.434.733.678 1.583.678 2.487A4.934 4.934 0 0 1 6.176 44a4.94 4.94 0 0 1-4.929-4.928 4.94 4.94 0 0 1 4.929-4.928h23.06c1.41 0 2.55-1.149 2.55-2.55v-3.31a5.05 5.05 0 0 1-2.55.687zm-6.077 10.092a2.491 2.491 0 0 0 2.487 2.487 2.497 2.497 0 0 0 2.487-2.487 2.497 2.497 0 0 0-2.487-2.487 2.491 2.491 0 0 0-2.487 2.487zm-19.478 0a2.491 2.491 0 0 0 2.487 2.487 2.497 2.497 0 0 0 2.487-2.487 2.497 2.497 0 0 0-2.487-2.487 2.491 2.491 0 0 0-2.487 2.487zM4.99 26.53h24.244c1.41 0 2.55-1.149 2.55-2.55V10.786L2.441 14.828v9.142c0 1.42 1.148 2.56 2.55 2.56z" fill="#3A3A3A"/></svg>