<svg width="35" height="34" fill="none" xmlns="http://www.w3.org/2000/svg"><path d="M34.697 32.266l-8.263-8.262a14.439 14.439 0 0 0 3.558-9.507C29.992 6.498 23.486 0 15.495 0 7.496 0 .998 6.506.998 14.497s6.506 14.497 14.497 14.497c3.634 0 6.958-1.342 9.507-3.558l8.262 8.262c.196.197.46.302.716.302a1.02 1.02 0 0 0 .716-1.734zM3.026 14.497c0-6.875 5.594-12.462 12.462-12.462 6.875 0 12.461 5.594 12.461 12.462 0 6.868-5.586 12.47-12.461 12.47-6.868 0-12.462-5.595-12.462-12.47z" fill="#3A3A3A"/></svg>